PathFileType	4	(X/Y/Z)	RBDS03\RBDS03runT25.trc																																																																																														
DataRate	CameraRate	NumFrames	NumMarkers	Units	OrigDataRate	OrigDataStartFrame	OrigNumFrames																																																																																										
150	150	4	32	mm	150	2812	4500																																																																																										
Frame#	Time	L.ASIS			L.Heel.Bottom			L.Heel.Lateral			L.Heel.Top			L.Iliac.Crest			L.MT1			L.MT5			L.PSIS			L.Shank.Bottom.Lateral			L.Shank.Bottom.Medial			L.Shank.Top.Lateral			L.Shank.Top.Medial			L.Thigh.Bottom.Lateral			L.Thigh.Bottom.Medial			L.Thigh.Top.Lateral			L.Thigh.Top.Medial			R.ASIS			R.MT5			R.Heel.Bottom			R.Heel.Lateral			R.Heel.Top			R.Iliac.Crest			R.MT1			R.PSIS			R.Shank.Bottom.Lateral			R.Shank.Bottom.Medial			R.Shank.Top.Lateral			R.Shank.Top.Medial			R.Thigh.Bottom.Lateral			R.Thigh.Bottom.Medial			R.Thigh.Top.Lateral			R.Thigh.Top.Medial		
		X1	Y1	Z1	X2	Y2	Z2	X3	Y3	Z3	X4	Y4	Z4	X5	Y5	Z5	X6	Y6	Z6	X7	Y7	Z7	X8	Y8	Z8	X9	Y9	Z9	X10	Y10	Z10	X11	Y11	Z11	X12	Y12	Z12	X13	Y13	Z13	X14	Y14	Z14	X15	Y15	Z15	X16	Y16	Z16	X17	Y17	Z17	X18	Y18	Z18	X19	Y19	Z19	X20	Y20	Z20	X21	Y21	Z21	X22	Y22	Z22	X23	Y23	Z23	X24	Y24	Z24	X25	Y25	Z25	X26	Y26	Z26	X27	Y27	Z27	X28	Y28	Z28	X29	Y29	Z29	X30	Y30	Z30	X31	Y31	Z31	X32	Y32	Z32
																																																																																																	
2813	18.74666667	2283.961559	1069.482657	924.6194322	2009.061592	226.2403103	983.6838562	2040.492955	216.4192099	935.0528253	2047.443984	259.7181122	980.9730447	2213.199743	1144.461645	877.7523792	2203.702922	108.8698858	1010.639317	2161.771158	117.9929975	907.4922269	2115.16623	1100.731856	978.9855281	2151.498323	297.226735	918.5162218	2117.022787	323.6464384	951.8329657	2189.444719	366.0310088	902.3101012	2155.613166	392.8407797	934.3995866	2360.242652	662.193996	883.1438567	2296.438351	643.7124528	914.8700227	2319.831707	762.2500241	860.6147489	2257.024791	743.4827229	885.4570451	2278.818566	1062.067099	1138.291778	1900.739926	54.46133338	1139.918867	1757.133861	153.8521481	1045.383389	1790.715465	149.439354	1097.86551	1790.47161	188.8585633	1052.838327	2232.832068	1136.781463	1175.56667	1940.360057	53.68559156	1029.420727	2114.687569	1099.611261	1061.85075	1869.524563	236.1544399	1117.1981	1844.933849	256.4041567	1077.079672	1899.039659	313.6584303	1135.715596	1871.804591	330.561147	1092.789094	2096.270818	659.3807402	1170.966264	2035.612088	672.5566036	1132.900312	2108.372166	768.7631828	1185.47472	2052.520142	780.5989835	1147.688365
2814	18.75333333	2285.675341	1075.411375	923.315072	2028.50912	206.3180142	986.3203234	2060.282279	198.569084	937.6099471	2064.266878	242.547006	983.1136424	2214.178792	1151.254398	877.7898276	2231.482174	104.0162638	1013.004734	2188.427464	109.2919423	910.0113182	2117.391323	1106.885514	979.1802575	2165.734212	287.5377426	920.2998851	2130.018236	311.8582662	953.8954996	2199.319699	358.5058146	903.7132478	2164.226459	383.2870114	936.1442202	2357.470839	665.8177712	883.7994103	2293.533542	647.6161032	915.3586369	2317.722922	766.199064	861.5108462	2254.855318	747.8489373	886.4333738	2281.871524	1067.085441	1136.771488	1887.813939	59.13322137	1141.173911	1748.572438	167.1998122	1047.170847	1782.070379	160.8756904	1099.563494	1783.636851	200.5042489	1054.741556	2237.749525	1143.185102	1174.688491	1927.025339	57.06673901	1030.577978	2117.38388	1105.886635	1062.097457	1861.108887	244.5822262	1119.124627	1837.141513	264.3659149	1078.326045	1890.421366	322.3462142	1137.067253	1863.859172	338.6781822	1093.490582	2090.024599	667.5423959	1171.433864	2030.033983	681.9895574	1132.71121	2104.623946	776.7053908	1185.386454	2049.478566	789.722895	1146.907372
2815	18.76	2287.407613	1080.898516	922.1048704	2049.126784	187.0609795	988.6205059	2081.18087	181.4099727	939.833712	2082.097392	225.8114713	985.0217348	2215.206002	1157.54251	877.8655429	2259.160203	100.1953726	1015.002824	2215.49491	101.6397465	912.1666015	2119.58302	1112.650989	979.3872696	2180.310125	278.1158858	921.9016763	2143.561239	300.2463729	955.8832007	2209.391045	350.9821629	905.0136783	2173.244951	373.652378	937.9050328	2354.096763	668.6466814	884.4774328	2289.9506	650.8048509	915.7583168	2315.163384	769.410176	862.415941	2252.183746	751.5430117	887.3078452	2284.783078	1071.937503	1135.290467	1874.815099	64.84897283	1142.551868	1739.935548	180.7618949	1048.87893	1773.252935	172.7781817	1101.198996	1776.575898	212.3817382	1056.480045	2242.681979	1149.417355	1173.808186	1913.556907	61.34035981	1032.024572	2119.96139	1111.881848	1062.331144	1852.788107	253.2023914	1120.905967	1829.433279	272.6973373	1079.543863	1882.259486	331.0554043	1138.372869	1856.330627	347.0236014	1094.278239	2084.902349	675.1111614	1171.98855	2025.520614	690.6210073	1132.667907	2101.637	784.0501458	1185.44825	2047.115937	798.0386127	1146.353355
2816	18.76666667	2289.146062	1085.879329	921.0357926	2070.817962	168.672936	990.6149959	2103.050608	165.1346074	941.7366899	2100.861542	209.7068557	986.7048274	2216.281428	1163.238328	877.9641154	2286.648038	97.48797511	1016.575922	2242.78684	95.15993697	913.9173968	2121.716229	1117.963237	979.5937736	2195.159019	269.0809821	923.309669	2157.588634	288.9508489	957.7707715	2219.612108	343.5632179	906.2038185	2182.625103	364.0546304	939.6582699	2350.145213	670.6592778	885.175654	2285.734383	653.2916279	916.1209646	2312.184564	771.8478131	863.2853406	2249.055102	754.5555	888.0812299	2287.510747	1076.574142	1133.916532	1861.513929	71.63570509	1144.02789	1731.039637	194.4859999	1050.387756	1764.06702	185.0982013	1102.680758	1769.093735	224.4574615	1057.968919	2247.497872	1155.41682	1172.939497	1899.788412	66.51493173	1033.73724	2122.390351	1117.523727	1062.547785	1844.395924	262.0346338	1122.496419	1821.650178	281.437008	1080.697903	1874.427883	339.7801485	1139.60755	1849.101987	355.6163339	1095.129699	2080.999334	681.9263908	1172.608775	2022.127118	698.2879301	1132.797051	2099.486621	790.6518871	1185.659729	2045.465505	805.4025188	1146.074435
